<svg xmlns="http://www.w3.org/2000/svg" viewBox="0 0 279 223"><defs><style>.a{fill:#fff;}</style></defs><path class="a" d="M72.45,153.67H65.7a1.16,1.16,0,0,0-1,.81l-5,19.54h-.23l-8.94-20.29a1,1,0,0,0-1-.64h-1a1.09,1.09,0,0,0-1,.64L38.61,174h-.23l-5-19.54a1.16,1.16,0,0,0-1-.81H25.64a1,1,0,0,0-1,1.38L35.5,193.79a1.12,1.12,0,0,0,1,.81h.92a1.17,1.17,0,0,0,1-.64l10.49-23.57h.17L59.65,194a1.17,1.17,0,0,0,1,.64h.92a1.1,1.1,0,0,0,1-.81l10.9-38.74A1,1,0,0,0,72.45,153.67Z"/><path class="a" d="M80.75,153.67h6.92a1.09,1.09,0,0,1,1.09,1.09v38.16a1.1,1.1,0,0,1-1.1,1.1H80.75a1.1,1.1,0,0,1-1.1-1.1V154.77A1.1,1.1,0,0,1,80.75,153.67Z"/><path class="a" d="M121.44,185.55H107.72V154.77a1.14,1.14,0,0,0-1.1-1.1H99.76a1.09,1.09,0,0,0-1.09,1.1v38.16A1.09,1.09,0,0,0,99.76,194h21.68a1.09,1.09,0,0,0,1.09-1.09v-6.29A1.09,1.09,0,0,0,121.44,185.55Z"/><path class="a" d="M143.22,153.67H129.16a1.09,1.09,0,0,0-1,1.1v38.16a1.08,1.08,0,0,0,1,1.09h14.06a20.18,20.18,0,1,0,0-40.35Zm-.57,31.82h-5.54V162.14h5.54c6.51,0,11.24,5.13,11.24,11.65S149.16,185.49,142.65,185.49Z"/><path class="a" d="M204.78,153.9a1.11,1.11,0,0,0-1-.81h-.92a1.11,1.11,0,0,0-1,.64L190.6,185.49h-.29L178.9,153.73a1.11,1.11,0,0,0-1-.64H177a1.12,1.12,0,0,0-1,.81l-7.44,38.74c-.17.8.18,1.38,1,1.38h2.31a1.1,1.1,0,0,0,1-.81l5-29.68h.23L188.87,194a1.18,1.18,0,0,0,1,.64h1a1.17,1.17,0,0,0,1-.64l10.61-30.43h.23l5.13,29.68a1.16,1.16,0,0,0,1,.81h2.31c.86,0,1.21-.58,1-1.38Z"/><path class="a" d="M244.9,157.53a1.09,1.09,0,0,0,1.09-1.09v-1.67a1.09,1.09,0,0,0-1.09-1.1H222.18a1.09,1.09,0,0,0-1.09,1.1v38.16a1.09,1.09,0,0,0,1.09,1.09H244.9a1.09,1.09,0,0,0,1.09-1.09v-1.68a1.09,1.09,0,0,0-1.09-1.09H225.53v-14.7h16.54a1.1,1.1,0,0,0,1.1-1.1v-1.67a1.14,1.14,0,0,0-1.1-1.09H225.53V157.53Z"/><path class="a" d="M173.64,109.24h.05a6.22,6.22,0,0,0,6.16-6.27c0-2.94-.11-20.52-.13-31,4.18,1.06,13.56,4.56,13.56,14.58,0,7.57.08,22.18.12,24.94a6.24,6.24,0,0,0,6.21,6.14h.06a6.22,6.22,0,0,0,6.16-6.27c0-2.51-.09-8.7-.12-15.7,0-16.3,0-28.1-22-35.12l-.07,0c-3.94-1.63-6-5.89-6.06-5.93l-.09-.15a31.11,31.11,0,0,0-2.14-3.76,33,33,0,0,0-25.06-14.14h-.14c-18.71-.4-32.8,13.41-33.48,32.87-.19,5.34-.11,9.57,0,13.3,0,.87,0,1.72,0,2.54a6.23,6.23,0,0,0,6.21,6.14H123a6.23,6.23,0,0,0,6.16-6.27c0-1.42,0-2.82-.07-4.24-.07-3.56-.14-7.24,0-11.62a21.24,21.24,0,0,1,10.65-18,20.45,20.45,0,0,1,10-2.4,18.29,18.29,0,0,1,9.16,3.24c5.4,3.85,8.49,10.76,8.46,18.94,0,8.35,0,17.85,0,23.56l0,.25c0,2.91,0,4.15.05,5.58,0,.75,0,1.54.07,2.66A6.23,6.23,0,0,0,173.64,109.24Z"/><path class="a" d="M171,35.9a29.6,29.6,0,0,1,8.57,8.33,29,29,0,0,1,2.08,3.68.75.75,0,0,0,.07.12,15.2,15.2,0,0,0,6.9,6.71l.16.08a45.21,45.21,0,0,1,10.28,4.5,1.34,1.34,0,0,0,.69.2A1.32,1.32,0,0,0,201.07,58c-3.51-18.77-17.83-23.68-29.23-24.49a1.3,1.3,0,0,0-1.34.89A1.32,1.32,0,0,0,171,35.9Z"/><path class="a" d="M97.9,118.08a29.4,29.4,0,0,1-8.59-8.36,28.17,28.17,0,0,1-2.09-3.7.44.44,0,0,0-.08-.11,15.29,15.29,0,0,0-6.92-6.74.8.8,0,0,0-.16-.08,45.57,45.57,0,0,1-10.32-4.51,1.32,1.32,0,0,0-.69-.2,1.34,1.34,0,0,0-.74.23,1.3,1.3,0,0,0-.55,1.32c3.53,18.84,17.9,23.76,29.34,24.57a1.31,1.31,0,0,0,.8-2.42Z"/><path class="a" d="M120.35,117.44h.81c18.33,0,32-13.7,32.69-32.88.18-5.33.1-9.56,0-13.28,0-.89,0-1.74,0-2.56a6.24,6.24,0,0,0-6.22-6.15h-.05a6.23,6.23,0,0,0-6.16,6.27c0,1.42,0,2.82.07,4.24.06,3.56.14,7.24,0,11.62a21.19,21.19,0,0,1-10.64,18,20.35,20.35,0,0,1-10,2.41,18.33,18.33,0,0,1-9.17-3.25c-5.4-3.85-8.48-10.75-8.46-18.93,0-8.36,0-17.63,0-23.33a1,1,0,0,0,0-.24c0-2.75,0-3.44,0-4.3,0-.54-.05-1.14-.07-2.37a6.22,6.22,0,0,0-12.43.12c0,2.87.11,19,.13,29.17-4.17-1.06-13.55-4.56-13.55-14.57,0-7.61-.09-22-.12-24.7a6.24,6.24,0,0,0-6.22-6.14h0a6.22,6.22,0,0,0-6.16,6.26c0,2.51.08,12.32.11,19.32,0,16.31,0,24.24,22,31.26l.06,0c3.95,1.64,6,5.89,6.07,5.93a.8.8,0,0,0,.08.16,30.57,30.57,0,0,0,2.15,3.76,33,33,0,0,0,25,14.14Z"/></svg>